<svg width="251" height="239" viewBox="0 0 251 239" fill="none" xmlns="http://www.w3.org/2000/svg">
<path fill-rule="evenodd" clip-rule="evenodd" d="M139.62 35.8952C131.988 34.7584 124.233 34.5754 116.567 35.3423C132.518 47.4436 148.991 66.5761 160.215 96.6175C172.201 128.697 190.401 146.059 205.723 155.51C207.962 151.056 209.765 146.455 211.133 141.766C194.836 129.716 177.85 110.396 166.362 79.6489C159.067 60.1238 149.469 46.0506 139.62 35.8952ZM214.31 122.145C215.169 99.0252 206.081 75.6681 187.179 58.3782C181.629 53.3007 175.562 49.0489 169.148 45.6204C174.279 53.7878 178.999 63.1879 183.039 74.001C191.45 96.5128 202.921 111.777 214.31 122.145ZM196.511 169.906C177.931 158.556 156.974 138.227 143.538 102.265C130.977 68.6453 111.59 51.1906 95.8426 42.0662C95.0299 41.5951 94.2257 41.1457 93.4311 40.7168C88.1821 42.6806 83.0929 45.1392 78.2433 48.0904C79.5493 48.7768 80.8768 49.5079 82.2215 50.2869C101.325 61.3564 123.423 81.8473 137.391 119.234C149.952 152.854 169.339 170.309 185.087 179.434C185.626 179.746 186.162 180.05 186.694 180.344C187.708 179.429 188.704 178.487 189.682 177.518C192.143 175.079 194.419 172.537 196.511 169.906ZM171.67 191.26C153.607 179.688 133.666 159.548 120.714 124.882C108.153 91.2619 88.7659 73.8071 73.0187 64.6827C69.5236 62.6571 66.1834 61.0291 63.1069 59.7218C62.749 60.0645 62.3933 60.4111 62.0401 60.761C28.1749 94.3185 29.2955 147.659 64.5428 179.9C94.0828 206.921 138.217 210.547 171.67 191.26Z" fill="#090909" fill-opacity="0.75"/>
<path d="M76.1115 126.026H67.5888C67.4752 125.151 67.2422 124.361 66.8899 123.656C66.5377 122.952 66.0718 122.349 65.4922 121.849C64.9127 121.349 64.2252 120.969 63.4297 120.707C62.6456 120.435 61.7763 120.298 60.8218 120.298C59.1286 120.298 57.6683 120.713 56.4411 121.543C55.2252 122.372 54.2877 123.571 53.6286 125.139C52.9808 126.707 52.657 128.605 52.657 130.832C52.657 133.151 52.9865 135.094 53.6456 136.662C54.3161 138.219 55.2536 139.395 56.4581 140.19C57.674 140.974 59.1115 141.366 60.7706 141.366C61.7024 141.366 62.549 141.247 63.3104 141.008C64.0831 140.77 64.7593 140.423 65.3388 139.969C65.9297 139.503 66.4127 138.94 66.7877 138.281C67.174 137.611 67.4411 136.855 67.5888 136.014L76.1115 136.065C75.9638 137.611 75.5149 139.133 74.7649 140.633C74.0263 142.133 73.0093 143.503 71.7138 144.741C70.4183 145.969 68.8388 146.946 66.9752 147.673C65.1229 148.401 62.9979 148.764 60.6002 148.764C57.4411 148.764 54.6115 148.071 52.1115 146.685C49.6229 145.287 47.657 143.253 46.2138 140.582C44.7706 137.912 44.049 134.662 44.049 130.832C44.049 126.991 44.782 123.736 46.2479 121.065C47.7138 118.395 49.6968 116.366 52.1968 114.98C54.6968 113.594 57.4979 112.901 60.6002 112.901C62.7138 112.901 64.6683 113.196 66.4638 113.787C68.2593 114.366 69.8388 115.219 71.2024 116.344C72.5661 117.457 73.674 118.827 74.5263 120.452C75.3786 122.077 75.907 123.935 76.1115 126.026ZM94.2351 148.287L99.9624 113.378H106.099L100.371 148.287H94.2351ZM78.6726 139.969L79.7124 133.832H107.394L106.354 139.969H78.6726ZM81.9624 148.287L87.6897 113.378H93.826L88.0987 148.287H81.9624ZM80.6669 127.832L81.7067 121.696H109.389L108.349 127.832H80.6669Z" fill="#D9D9D9"/>
</svg>
