<svg width="133" height="126" viewBox="0 0 133 126" fill="none" xmlns="http://www.w3.org/2000/svg">
<path fill-rule="evenodd" clip-rule="evenodd" d="M73.3274 18.9973C69.2793 18.375 65.1696 18.2558 61.1099 18.6384C69.6015 25.0734 78.392 35.2219 84.4364 51.1142C90.8913 68.0848 100.591 77.3034 108.741 82.3372C109.914 79.9923 110.854 77.5689 111.564 75.0975C102.889 68.6886 93.8258 58.4397 87.639 42.1739C83.7105 31.8448 78.5795 24.3873 73.3274 18.9973ZM113.184 64.7483C113.565 52.5451 108.674 40.1879 98.602 31.0051C95.6442 28.3084 92.4157 26.0461 89.0058 24.2174C91.751 28.5441 94.2826 33.5204 96.4582 39.2407C100.988 51.1497 107.116 59.2414 113.184 64.7483ZM103.906 89.9104C94.0236 83.8648 82.8529 73.0714 75.6173 54.0473C68.8528 36.2618 58.5233 26.9906 50.1494 22.1278C49.7172 21.8767 49.2896 21.6371 48.8671 21.4084C46.092 22.4298 43.4031 23.713 40.8428 25.2569C41.537 25.6231 42.2428 26.0129 42.9579 26.428C53.1169 32.3276 64.8924 43.2095 72.4147 62.9876C79.1794 80.7732 89.5088 90.0444 97.8829 94.9073C98.1696 95.074 98.4548 95.2358 98.7376 95.3924C99.2719 94.9125 99.7969 94.4179 100.312 93.9091C101.608 92.6292 102.806 91.2936 103.906 89.9104ZM90.8114 101.112C81.2023 94.95 70.5708 84.2596 63.5956 65.9207C56.8311 48.1353 46.5016 38.864 38.1277 34.0012C36.269 32.9217 34.4938 32.0525 32.8593 31.3534C32.6708 31.5333 32.4834 31.7152 32.2974 31.8989C14.46 49.5162 15.2256 77.6793 34.0073 94.8029C49.7478 109.154 73.1467 111.197 90.8114 101.112Z" fill="white"/>
<path d="M44.6167 67.2213H39.8099C39.7758 66.8236 39.6849 66.4628 39.5372 66.1389C39.3952 65.815 39.1963 65.5366 38.9406 65.3037C38.6906 65.065 38.3866 64.8832 38.0287 64.7582C37.6707 64.6275 37.2645 64.5622 36.8099 64.5622C36.0145 64.5622 35.3412 64.7554 34.79 65.1417C34.2446 65.5281 33.8298 66.0821 33.5457 66.8037C33.2673 67.5253 33.1281 68.3917 33.1281 69.4031C33.1281 70.4713 33.2702 71.3662 33.5542 72.0878C33.844 72.8037 34.2616 73.3434 34.8071 73.7071C35.3525 74.065 36.0088 74.244 36.7758 74.244C37.2133 74.244 37.6054 74.19 37.952 74.0821C38.2986 73.9684 38.5997 73.8065 38.8554 73.5963C39.1111 73.3861 39.3184 73.1332 39.4775 72.8378C39.6423 72.5366 39.7531 72.1986 39.8099 71.8236L44.6167 71.8576C44.5599 72.5963 44.3525 73.3491 43.9946 74.1162C43.6366 74.8775 43.1281 75.5821 42.469 76.2298C41.8156 76.8718 41.0059 77.3889 40.04 77.7809C39.0741 78.173 37.952 78.369 36.6736 78.369C35.0713 78.369 33.6338 78.0253 32.3611 77.3378C31.094 76.6503 30.0912 75.6389 29.3525 74.3037C28.6196 72.9684 28.2531 71.3349 28.2531 69.4031C28.2531 67.4599 28.6281 65.8236 29.3781 64.494C30.1281 63.1588 31.1395 62.1503 32.4122 61.4684C33.6849 60.7809 35.1054 60.4372 36.6736 60.4372C37.7758 60.4372 38.79 60.5878 39.7162 60.8889C40.6423 61.19 41.4548 61.6304 42.1537 62.2099C42.8525 62.7838 43.415 63.4912 43.8412 64.3321C44.2673 65.173 44.5258 66.1361 44.6167 67.2213ZM53.5166 78.1304L56.3802 60.6758H59.7893L56.9257 78.1304H53.5166ZM45.778 74.1417L46.3575 70.7326H60.403L59.8234 74.1417H45.778ZM47.3802 78.1304L50.2439 60.6758H53.653L50.7893 78.1304H47.3802ZM46.7666 68.0736L47.3461 64.6645H61.3916L60.8121 68.0736H46.7666Z" fill="black"/>
</svg>
