<svg width="142" height="56" viewBox="0 0 142 56" fill="none" xmlns="http://www.w3.org/2000/svg">
<path fill-rule="evenodd" clip-rule="evenodd" d="M34.3856 8.43605C32.4961 8.16888 30.5764 8.12588 28.6787 8.30611C32.6275 11.1502 36.7055 15.6467 39.4841 22.707C42.4513 30.2463 46.9569 34.3266 50.7502 36.5477C51.3045 35.5009 51.7507 34.4197 52.0895 33.3178C48.0549 30.4858 43.8498 25.9453 41.0058 18.719C39.1998 14.1302 36.8239 10.8228 34.3856 8.43605ZM52.876 28.7065C53.0886 23.2728 50.8388 17.7834 46.1594 13.72C44.7853 12.5267 43.2834 11.5274 41.6955 10.7217C42.9657 12.6411 44.1343 14.8503 45.1344 17.3916C47.2166 22.6823 50.0564 26.2697 52.876 28.7065ZM48.4695 39.931C43.8698 37.2637 38.6817 32.486 35.3555 24.0343C32.2458 16.133 27.4464 12.0308 23.548 9.88636C23.3469 9.77564 23.1477 9.67002 22.951 9.56923C21.6516 10.0307 20.3917 10.6086 19.1911 11.3022C19.5145 11.4635 19.8431 11.6353 20.176 11.8184C24.9054 14.4199 30.3758 19.2357 33.8338 28.0223C36.9435 35.9237 41.7429 40.0259 45.6413 42.1703C45.7748 42.2438 45.9076 42.3151 46.0393 42.3842C46.2903 42.1692 46.5369 41.9477 46.7791 41.72C47.3882 41.147 47.9516 40.5495 48.4695 39.931ZM42.3199 44.9498C37.8482 42.2301 32.9117 37.4968 29.7052 29.3496C26.5955 21.4483 21.7961 17.3461 17.8977 15.2017C17.0325 14.7256 16.2056 14.343 15.444 14.0357C15.3554 14.1163 15.2673 14.1977 15.1799 14.28C6.79619 22.1666 7.07359 34.7027 15.7994 42.28C23.1124 48.6304 34.0383 49.4827 42.3199 44.9498Z" fill="url(#paint0_linear_1034_1200)" fill-opacity="0.75"/>
<path d="M20.5824 30.4347H18.4517C18.4233 30.2159 18.3651 30.0185 18.277 29.8423C18.1889 29.6662 18.0724 29.5156 17.9276 29.3906C17.7827 29.2656 17.6108 29.1705 17.4119 29.1051C17.2159 29.0369 16.9986 29.0028 16.7599 29.0028C16.3366 29.0028 15.9716 29.1065 15.6648 29.3139C15.3608 29.5213 15.1264 29.821 14.9616 30.2131C14.7997 30.6051 14.7188 31.0795 14.7188 31.6364C14.7188 32.2159 14.8011 32.7017 14.9659 33.0938C15.1335 33.483 15.3679 33.777 15.669 33.9759C15.973 34.1719 16.3324 34.2699 16.7472 34.2699C16.9801 34.2699 17.1918 34.2401 17.3821 34.1804C17.5753 34.1207 17.7443 34.0341 17.8892 33.9205C18.0369 33.804 18.1577 33.6634 18.2514 33.4986C18.348 33.331 18.4148 33.142 18.4517 32.9318L20.5824 32.9446C20.5455 33.331 20.4332 33.7116 20.2457 34.0866C20.0611 34.4616 19.8068 34.804 19.483 35.1136C19.1591 35.4205 18.7642 35.6648 18.2983 35.8466C17.8352 36.0284 17.304 36.1193 16.7045 36.1193C15.9148 36.1193 15.2074 35.946 14.5824 35.5994C13.9602 35.25 13.4688 34.7415 13.108 34.0739C12.7472 33.4062 12.5668 32.5937 12.5668 31.6364C12.5668 30.6761 12.75 29.8622 13.1165 29.1946C13.483 28.527 13.9787 28.0199 14.6037 27.6733C15.2287 27.3267 15.929 27.1534 16.7045 27.1534C17.233 27.1534 17.7216 27.2273 18.1705 27.375C18.6193 27.5199 19.0142 27.733 19.3551 28.0142C19.696 28.2926 19.973 28.6349 20.1861 29.0412C20.3991 29.4474 20.5312 29.9119 20.5824 30.4347ZM25.1133 36L26.5451 27.2727H28.0792L26.6474 36H25.1133ZM21.2227 33.9205L21.4826 32.3864H28.4031L28.1431 33.9205H21.2227ZM22.0451 36L23.4769 27.2727H25.011L23.5792 36H22.0451ZM21.7212 30.8864L21.9812 29.3523H28.9016L28.6417 30.8864H21.7212Z" fill="white"/>
<path d="M56.9944 43.6626V29.1171H60.51V40.8075H66.5612V43.6626H56.9944ZM73.4806 43.8686C72.3395 43.8686 71.3546 43.6437 70.526 43.1938C69.7021 42.7393 69.0677 42.093 68.6226 41.2549C68.1823 40.4121 67.9621 39.4107 67.9621 38.2507C67.9621 37.1238 68.1846 36.1389 68.6297 35.2961C69.0748 34.4486 69.7021 33.7904 70.5118 33.3217C71.3215 32.8482 72.2755 32.6115 73.374 32.6115C74.1505 32.6115 74.8608 32.7322 75.5047 32.9737C76.1486 33.2152 76.705 33.5726 77.1737 34.0461C77.6425 34.5196 78.0071 35.1044 78.2675 35.8004C78.5279 36.4917 78.6581 37.2848 78.6581 38.1796V39.0461H69.1766V37.0291H75.4266C75.4218 36.6598 75.3343 36.3307 75.1638 36.0419C74.9933 35.753 74.759 35.5281 74.4607 35.3671C74.1671 35.2014 73.8286 35.1186 73.445 35.1186C73.0568 35.1186 72.7088 35.2062 72.401 35.3813C72.0932 35.5518 71.8494 35.7862 71.6695 36.0845C71.4896 36.378 71.3949 36.7118 71.3854 37.0859V39.1384C71.3854 39.5835 71.473 39.9742 71.6482 40.3103C71.8234 40.6418 72.0719 40.8998 72.3939 41.0845C72.7159 41.2691 73.0994 41.3615 73.5445 41.3615C73.8522 41.3615 74.1316 41.3188 74.3825 41.2336C74.6335 41.1484 74.8489 41.0229 75.0289 40.8572C75.2088 40.6915 75.3437 40.4879 75.4337 40.2464L78.6226 40.3387C78.49 41.0537 78.1988 41.6763 77.749 42.2066C77.3039 42.7322 76.7192 43.1418 75.9948 43.4353C75.2703 43.7242 74.4323 43.8686 73.4806 43.8686ZM83.5072 43.8473C82.8112 43.8473 82.1933 43.7313 81.6535 43.4992C81.1185 43.2625 80.6947 42.9074 80.3822 42.4339C80.0744 41.9557 79.9205 41.3567 79.9205 40.637C79.9205 40.031 80.0271 39.5196 80.2401 39.1029C80.4532 38.6863 80.7468 38.3477 81.1208 38.0873C81.4949 37.8269 81.9258 37.6304 82.4134 37.4978C82.9011 37.3605 83.422 37.2682 83.9759 37.2208C84.5962 37.164 85.0957 37.1048 85.4745 37.0433C85.8533 36.977 86.1279 36.8847 86.2984 36.7663C86.4736 36.6432 86.5612 36.4704 86.5612 36.2478V36.2123C86.5612 35.8477 86.4357 35.566 86.1847 35.3671C85.9338 35.1683 85.5953 35.0688 85.1691 35.0688C84.7098 35.0688 84.3405 35.1683 84.0612 35.3671C83.7818 35.566 83.6043 35.8406 83.5285 36.191L80.3254 36.0774C80.4201 35.4145 80.6639 34.8226 81.0569 34.3018C81.4546 33.7762 81.9991 33.3643 82.6904 33.066C83.3865 32.763 84.2222 32.6115 85.1975 32.6115C85.8936 32.6115 86.5351 32.6943 87.1222 32.86C87.7094 33.021 88.2207 33.2578 88.6563 33.5703C89.0919 33.878 89.4281 34.2568 89.6649 34.7066C89.9063 35.1564 90.0271 35.6702 90.0271 36.2478V43.6626H86.76V42.1427H86.6748C86.4807 42.512 86.2321 42.8245 85.9291 43.0802C85.6308 43.3359 85.278 43.5277 84.8708 43.6555C84.4684 43.7833 84.0138 43.8473 83.5072 43.8473ZM84.5796 41.5745C84.9537 41.5745 85.2899 41.4988 85.5882 41.3473C85.8912 41.1957 86.1327 40.9874 86.3126 40.7223C86.4925 40.4524 86.5825 40.1399 86.5825 39.7848V38.7478C86.483 38.7999 86.3623 38.8473 86.2203 38.8899C86.0829 38.9325 85.9314 38.9727 85.7657 39.0106C85.6 39.0485 85.4295 39.0816 85.2544 39.11C85.0792 39.1384 84.9111 39.1645 84.7501 39.1882C84.4234 39.2402 84.144 39.3207 83.912 39.4296C83.6847 39.5385 83.5096 39.6806 83.3865 39.8558C83.2681 40.0262 83.2089 40.2298 83.2089 40.4666C83.2089 40.8264 83.3367 41.101 83.5924 41.2904C83.8528 41.4798 84.1819 41.5745 84.5796 41.5745ZM92.1507 43.6626V32.7535H95.5242V34.7421H95.6379C95.8367 34.0224 96.1611 33.4874 96.6109 33.137C97.0607 32.7819 97.5839 32.6044 98.1805 32.6044C98.3415 32.6044 98.5072 32.6162 98.6776 32.6399C98.8481 32.6588 99.0067 32.6896 99.1535 32.7322V35.7507C98.9878 35.6938 98.77 35.6489 98.5001 35.6157C98.2349 35.5826 97.9982 35.566 97.7899 35.566C97.3779 35.566 97.0062 35.6583 96.6748 35.843C96.3481 36.0229 96.0901 36.2762 95.9007 36.6029C95.716 36.9249 95.6237 37.3037 95.6237 37.7393V43.6626H92.1507ZM100.54 43.6626V41.1342L105.846 36.4893C106.243 36.1295 106.582 35.8004 106.861 35.5021C107.141 35.1991 107.354 34.896 107.5 34.593C107.647 34.2852 107.721 33.9514 107.721 33.5916C107.721 33.1891 107.633 32.8458 107.458 32.5617C107.283 32.2729 107.041 32.0504 106.733 31.8941C106.426 31.7379 106.073 31.6598 105.675 31.6598C105.273 31.6598 104.92 31.7426 104.617 31.9083C104.314 32.0693 104.077 32.3037 103.907 32.6115C103.741 32.9192 103.658 33.2933 103.658 33.7336H100.327C100.327 32.744 100.55 31.8894 100.995 31.1697C101.44 30.45 102.065 29.896 102.87 29.5078C103.679 29.1148 104.619 28.9183 105.689 28.9183C106.793 28.9183 107.751 29.1029 108.566 29.4723C109.38 29.8416 110.01 30.3577 110.455 31.0206C110.905 31.6787 111.13 32.4434 111.13 33.3146C111.13 33.8686 111.018 34.4178 110.796 34.9623C110.573 35.5068 110.173 36.1081 109.596 36.7663C109.023 37.4244 108.208 38.2128 107.152 39.1313L105.412 40.7365V40.8288H111.307V43.6626H100.54ZM118.827 43.8615C117.719 43.8615 116.736 43.6721 115.879 43.2933C115.027 42.9098 114.355 42.3818 113.862 41.7095C113.37 41.0371 113.119 40.263 113.109 39.387H116.646C116.661 39.7043 116.762 39.986 116.952 40.2322C117.141 40.4737 117.399 40.6631 117.726 40.8004C118.053 40.9377 118.424 41.0063 118.841 41.0063C119.258 41.0063 119.625 40.933 119.942 40.7862C120.264 40.6347 120.515 40.4287 120.695 40.1683C120.875 39.9031 120.962 39.6001 120.957 39.2592C120.962 38.9183 120.865 38.6152 120.666 38.3501C120.467 38.0849 120.186 37.879 119.821 37.7322C119.461 37.5854 119.035 37.512 118.543 37.512H117.129V35.012H118.543C118.974 35.012 119.352 34.941 119.679 34.799C120.011 34.6569 120.269 34.4581 120.453 34.2024C120.638 33.942 120.728 33.6437 120.723 33.3075C120.728 32.9808 120.65 32.6943 120.489 32.4481C120.332 32.1972 120.112 32.003 119.828 31.8657C119.549 31.7284 119.225 31.6598 118.855 31.6598C118.467 31.6598 118.114 31.7284 117.797 31.8657C117.484 32.003 117.236 32.1972 117.051 32.4481C116.867 32.6991 116.77 32.9902 116.76 33.3217H113.401C113.41 32.4552 113.652 31.6929 114.125 31.0348C114.599 30.3719 115.243 29.8534 116.057 29.4794C116.876 29.1053 117.809 28.9183 118.855 28.9183C119.897 28.9183 120.813 29.1006 121.604 29.4652C122.395 29.8297 123.01 30.3269 123.45 30.9566C123.891 31.5816 124.111 32.2895 124.111 33.0802C124.116 33.8993 123.848 34.5741 123.308 35.1044C122.773 35.6347 122.084 35.9614 121.242 36.0845V36.1981C122.368 36.3307 123.218 36.6953 123.791 37.2919C124.369 37.8884 124.655 38.6342 124.651 39.5291C124.651 40.3719 124.402 41.12 123.905 41.7734C123.412 42.4221 122.726 42.9334 121.845 43.3075C120.969 43.6768 119.963 43.8615 118.827 43.8615Z" fill="url(#paint1_linear_1034_1200)" fill-opacity="0.75"/>
<defs>
<linearGradient id="paint0_linear_1034_1200" x1="46.1595" y1="13.72" x2="18.9687" y2="45.0321" gradientUnits="userSpaceOnUse">
<stop stop-color="#5D4BE2"/>
<stop offset="0.71" stop-color="#CA0CA1" stop-opacity="0.8225"/>
<stop offset="1" stop-color="#33297C" stop-opacity="0.75"/>
</linearGradient>
<linearGradient id="paint1_linear_1034_1200" x1="98.9467" y1="27.6626" x2="98.9467" y2="45.2048" gradientUnits="userSpaceOnUse">
<stop offset="0.0381818" stop-color="#7C2978"/>
<stop offset="0.458182" stop-color="#5D4BE2"/>
<stop offset="1" stop-color="#7C2978"/>
</linearGradient>
</defs>
</svg>
