<svg width="123" height="57" viewBox="0 0 123 57" fill="none" xmlns="http://www.w3.org/2000/svg">
<path fill-rule="evenodd" clip-rule="evenodd" d="M31.3879 8.51999C29.6631 8.25016 27.9108 8.20674 26.1785 8.38875C29.7831 11.2611 33.5055 15.8023 36.0418 22.9329C38.7504 30.5473 42.8631 34.6682 46.3257 36.9113C46.8317 35.8541 47.239 34.7622 47.5482 33.6493C43.8654 30.7891 40.027 26.2034 37.4309 18.9053C35.7824 14.2708 33.6136 10.9305 31.3879 8.51999ZM48.2662 28.9921C48.4602 23.5044 46.4066 17.9604 42.1352 13.8565C40.8808 12.6513 39.5099 11.6421 38.0605 10.8283C39.2199 12.7669 40.2866 14.9981 41.1995 17.5647C43.1002 22.908 45.6924 26.5311 48.2662 28.9921ZM44.2438 40.3283C40.0452 37.6345 35.3094 32.8092 32.2732 24.2735C29.4347 16.2935 25.0537 12.1505 21.4952 9.98473C21.3116 9.87291 21.1298 9.76624 20.9503 9.66444C19.7641 10.1305 18.6141 10.7141 17.5182 11.4146C17.8133 11.5775 18.1133 11.7511 18.4172 11.936C22.7342 14.5634 27.7277 19.4271 30.8842 28.3011C33.7228 36.2811 38.1037 40.4241 41.6623 42.5899C41.7841 42.6641 41.9053 42.7362 42.0255 42.8059C42.2546 42.5888 42.4798 42.3651 42.7008 42.1351C43.2568 41.5564 43.7711 40.9529 44.2438 40.3283ZM38.6304 45.3971C34.5485 42.6503 30.0425 37.8699 27.1155 29.6416C24.277 21.6617 19.896 17.5187 16.3375 15.3529C15.5477 14.8721 14.7929 14.4857 14.0977 14.1754C14.0168 14.2568 13.9364 14.339 13.8566 14.4221C6.20389 22.3872 6.4571 35.0479 14.4222 42.7007C21.0975 49.1142 31.0709 49.975 38.6304 45.3971Z" fill="#090909" fill-opacity="0.75"/>
<path d="M19.5824 32.4347H17.4517C17.4233 32.2159 17.3651 32.0185 17.277 31.8423C17.1889 31.6662 17.0724 31.5156 16.9276 31.3906C16.7827 31.2656 16.6108 31.1705 16.4119 31.1051C16.2159 31.0369 15.9986 31.0028 15.7599 31.0028C15.3366 31.0028 14.9716 31.1065 14.6648 31.3139C14.3608 31.5213 14.1264 31.821 13.9616 32.2131C13.7997 32.6051 13.7188 33.0795 13.7188 33.6364C13.7188 34.2159 13.8011 34.7017 13.9659 35.0938C14.1335 35.483 14.3679 35.777 14.669 35.9759C14.973 36.1719 15.3324 36.2699 15.7472 36.2699C15.9801 36.2699 16.1918 36.2401 16.3821 36.1804C16.5753 36.1207 16.7443 36.0341 16.8892 35.9205C17.0369 35.804 17.1577 35.6634 17.2514 35.4986C17.348 35.331 17.4148 35.142 17.4517 34.9318L19.5824 34.9446C19.5455 35.331 19.4332 35.7116 19.2457 36.0866C19.0611 36.4616 18.8068 36.804 18.483 37.1136C18.1591 37.4205 17.7642 37.6648 17.2983 37.8466C16.8352 38.0284 16.304 38.1193 15.7045 38.1193C14.9148 38.1193 14.2074 37.946 13.5824 37.5994C12.9602 37.25 12.4688 36.7415 12.108 36.0739C11.7472 35.4062 11.5668 34.5937 11.5668 33.6364C11.5668 32.6761 11.75 31.8622 12.1165 31.1946C12.483 30.527 12.9787 30.0199 13.6037 29.6733C14.2287 29.3267 14.929 29.1534 15.7045 29.1534C16.233 29.1534 16.7216 29.2273 17.1705 29.375C17.6193 29.5199 18.0142 29.733 18.3551 30.0142C18.696 30.2926 18.973 30.6349 19.1861 31.0412C19.3991 31.4474 19.5312 31.9119 19.5824 32.4347ZM24.1133 38L25.5451 29.2727H27.0792L25.6474 38H24.1133ZM20.2227 35.9205L20.4826 34.3864H27.4031L27.1431 35.9205H20.2227ZM21.0451 38L22.4769 29.2727H24.011L22.5792 38H21.0451ZM20.7212 32.8864L20.9812 31.3523H27.9016L27.6417 32.8864H20.7212Z" fill="#D9D9D9"/>
<path d="M52.1009 41V26.4545H55.6165V38.1449H61.6676V41H52.1009ZM68.587 41.206C67.4459 41.206 66.4611 40.9811 65.6325 40.5312C64.8086 40.0767 64.1741 39.4304 63.729 38.5923C63.2887 37.7495 63.0685 36.7481 63.0685 35.5881C63.0685 34.4612 63.2911 33.4763 63.7362 32.6335C64.1812 31.786 64.8086 31.1278 65.6183 30.6591C66.4279 30.1856 67.382 29.9489 68.4805 29.9489C69.257 29.9489 69.9672 30.0696 70.6112 30.3111C71.2551 30.5526 71.8114 30.91 72.2802 31.3835C72.7489 31.857 73.1135 32.4418 73.3739 33.1378C73.6344 33.8291 73.7646 34.6222 73.7646 35.517V36.3835H64.283V34.3665H70.533C70.5283 33.9972 70.4407 33.6681 70.2702 33.3793C70.0998 33.0904 69.8654 32.8655 69.5671 32.7045C69.2736 32.5388 68.935 32.456 68.5515 32.456C68.1632 32.456 67.8152 32.5436 67.5075 32.7188C67.1997 32.8892 66.9558 33.1236 66.7759 33.4219C66.596 33.7154 66.5013 34.0492 66.4918 34.4233V36.4759C66.4918 36.9209 66.5794 37.3116 66.7546 37.6477C66.9298 37.9792 67.1784 38.2372 67.5004 38.4219C67.8223 38.6065 68.2058 38.6989 68.6509 38.6989C68.9587 38.6989 69.238 38.6562 69.489 38.571C69.7399 38.4858 69.9554 38.3603 70.1353 38.1946C70.3152 38.0289 70.4502 37.8253 70.5401 37.5838L73.729 37.6761C73.5965 38.3911 73.3053 39.0137 72.8555 39.544C72.4104 40.0696 71.8256 40.4792 71.1012 40.7727C70.3768 41.0616 69.5387 41.206 68.587 41.206ZM78.6136 41.1847C77.9176 41.1847 77.2997 41.0687 76.7599 40.8366C76.2249 40.5999 75.8011 40.2448 75.4886 39.7713C75.1809 39.2931 75.027 38.6941 75.027 37.9744C75.027 37.3684 75.1335 36.857 75.3466 36.4403C75.5597 36.0237 75.8532 35.6851 76.2273 35.4247C76.6013 35.1643 77.0322 34.9678 77.5199 34.8352C78.0076 34.6979 78.5284 34.6056 79.0824 34.5582C79.7027 34.5014 80.2022 34.4422 80.581 34.3807C80.9598 34.3144 81.2344 34.2221 81.4048 34.1037C81.58 33.9806 81.6676 33.8078 81.6676 33.5852V33.5497C81.6676 33.1851 81.5421 32.9034 81.2912 32.7045C81.0402 32.5057 80.7017 32.4062 80.2756 32.4062C79.8163 32.4062 79.447 32.5057 79.1676 32.7045C78.8883 32.9034 78.7107 33.178 78.6349 33.5284L75.4318 33.4148C75.5265 32.7519 75.7704 32.16 76.1634 31.6392C76.5611 31.1136 77.1056 30.7017 77.7969 30.4034C78.4929 30.1004 79.3286 29.9489 80.304 29.9489C81 29.9489 81.6416 30.0317 82.2287 30.1974C82.8158 30.3584 83.3272 30.5952 83.7628 30.9077C84.1984 31.2154 84.5346 31.5942 84.7713 32.044C85.0128 32.4938 85.1335 33.0076 85.1335 33.5852V41H81.8665V39.4801H81.7812C81.5871 39.8494 81.3385 40.1619 81.0355 40.4176C80.7372 40.6733 80.3845 40.8651 79.9773 40.9929C79.5748 41.1207 79.1203 41.1847 78.6136 41.1847ZM79.6861 38.9119C80.0601 38.9119 80.3963 38.8362 80.6946 38.6847C80.9976 38.5331 81.2391 38.3248 81.419 38.0597C81.599 37.7898 81.6889 37.4773 81.6889 37.1222V36.0852C81.5895 36.1373 81.4688 36.1847 81.3267 36.2273C81.1894 36.2699 81.0379 36.3101 80.8722 36.348C80.7064 36.3859 80.536 36.419 80.3608 36.4474C80.1856 36.4759 80.0175 36.5019 79.8565 36.5256C79.5298 36.5777 79.2505 36.6581 79.0185 36.767C78.7912 36.8759 78.616 37.018 78.4929 37.1932C78.3745 37.3636 78.3153 37.5672 78.3153 37.804C78.3153 38.1638 78.4432 38.4384 78.6989 38.6278C78.9593 38.8172 79.2884 38.9119 79.6861 38.9119ZM87.2571 41V30.0909H90.6307V32.0795H90.7443C90.9432 31.3598 91.2675 30.8248 91.7173 30.4744C92.1671 30.1193 92.6903 29.9418 93.2869 29.9418C93.4479 29.9418 93.6136 29.9536 93.7841 29.9773C93.9545 29.9962 94.1132 30.027 94.2599 30.0696V33.0881C94.0942 33.0312 93.8764 32.9863 93.6065 32.9531C93.3414 32.92 93.1046 32.9034 92.8963 32.9034C92.4844 32.9034 92.1127 32.9957 91.7812 33.1804C91.4545 33.3603 91.1965 33.6136 91.0071 33.9403C90.8224 34.2623 90.7301 34.6411 90.7301 35.0767V41H87.2571ZM95.6467 41V38.4716L100.952 33.8267C101.35 33.4669 101.688 33.1378 101.968 32.8395C102.247 32.5365 102.46 32.2334 102.607 31.9304C102.754 31.6226 102.827 31.2888 102.827 30.929C102.827 30.5265 102.739 30.1832 102.564 29.8991C102.389 29.6103 102.148 29.3878 101.84 29.2315C101.532 29.0753 101.179 28.9972 100.782 28.9972C100.379 28.9972 100.026 29.08 99.7234 29.2457C99.4203 29.4067 99.1836 29.6411 99.0131 29.9489C98.8474 30.2566 98.7646 30.6307 98.7646 31.071H95.4336C95.4336 30.0814 95.6561 29.2268 96.1012 28.5071C96.5463 27.7874 97.1713 27.2334 97.9762 26.8452C98.7859 26.4522 99.7257 26.2557 100.796 26.2557C101.899 26.2557 102.858 26.4403 103.672 26.8097C104.487 27.179 105.116 27.6951 105.561 28.358C106.011 29.0161 106.236 29.7808 106.236 30.652C106.236 31.206 106.125 31.7552 105.902 32.2997C105.68 32.8442 105.28 33.4455 104.702 34.1037C104.129 34.7618 103.315 35.5502 102.259 36.4688L100.519 38.0739V38.1662H106.414V41H95.6467ZM113.933 41.1989C112.825 41.1989 111.843 41.0095 110.986 40.6307C110.134 40.2472 109.461 39.7192 108.969 39.0469C108.476 38.3745 108.225 37.6004 108.216 36.7244H111.753C111.767 37.0417 111.869 37.3234 112.058 37.5696C112.248 37.8111 112.506 38.0005 112.832 38.1378C113.159 38.2751 113.531 38.3438 113.947 38.3438C114.364 38.3438 114.731 38.2704 115.048 38.1236C115.37 37.9721 115.621 37.7661 115.801 37.5057C115.981 37.2405 116.069 36.9375 116.064 36.5966C116.069 36.2557 115.972 35.9527 115.773 35.6875C115.574 35.4223 115.292 35.2164 114.928 35.0696C114.568 34.9228 114.142 34.8494 113.649 34.8494H112.236V32.3494H113.649C114.08 32.3494 114.459 32.2784 114.786 32.1364C115.117 31.9943 115.375 31.7955 115.56 31.5398C115.744 31.2794 115.834 30.9811 115.83 30.6449C115.834 30.3182 115.756 30.0317 115.595 29.7855C115.439 29.5346 115.219 29.3404 114.935 29.2031C114.655 29.0658 114.331 28.9972 113.962 28.9972C113.573 28.9972 113.221 29.0658 112.903 29.2031C112.591 29.3404 112.342 29.5346 112.158 29.7855C111.973 30.0365 111.876 30.3277 111.866 30.6591H108.507C108.517 29.7926 108.758 29.0303 109.232 28.3722C109.705 27.7093 110.349 27.1908 111.163 26.8168C111.982 26.4427 112.915 26.2557 113.962 26.2557C115.003 26.2557 115.92 26.438 116.71 26.8026C117.501 27.1671 118.116 27.6643 118.557 28.294C118.997 28.919 119.217 29.6269 119.217 30.4176C119.222 31.2367 118.955 31.9115 118.415 32.4418C117.88 32.9721 117.191 33.2988 116.348 33.4219V33.5355C117.475 33.6681 118.325 34.0327 118.898 34.6293C119.475 35.2259 119.762 35.9716 119.757 36.8665C119.757 37.7093 119.509 38.4574 119.011 39.1108C118.519 39.7595 117.832 40.2708 116.952 40.6449C116.076 41.0142 115.07 41.1989 113.933 41.1989Z" fill="#090909" fill-opacity="0.75"/>
</svg>
